<?xml version="1.0" standalone="no"?>
<!DOCTYPE svg PUBLIC "-//W3C//DTD SVG 20010904//EN"
 "http://www.w3.org/TR/2001/REC-SVG-20010904/DTD/svg10.dtd">
<svg version="1.0" xmlns="http://www.w3.org/2000/svg"
 width="626.000000pt" height="626.000000pt" viewBox="0 0 626.000000 626.000000"
 preserveAspectRatio="xMidYMid meet">

<g transform="translate(0.000000,626.000000) scale(0.100000,-0.100000)"
fill="#000000" stroke="none">
<path d="M3041 5994 c-17 -14 -28 -30 -25 -35 7 -12 19 -4 44 31 26 37 21 38
-19 4z"/>
<path d="M2666 5955 c-15 -20 -31 -33 -35 -31 -4 3 -8 -5 -8 -16 -2 -28 -10
-33 -26 -19 -11 9 -17 8 -27 -4 -7 -8 -8 -15 -3 -15 18 0 11 -38 -11 -59 -18
-17 -23 -18 -23 -6 0 8 2 13 5 10 8 -8 33 25 27 35 -13 20 -33 9 -99 -57 -70
-70 -108 -118 -144 -186 l-21 -39 -20 39 c-11 21 -20 33 -21 26 0 -8 -8 -7
-28 4 -22 13 -28 22 -24 42 3 21 -2 17 -23 -18 -14 -24 -41 -65 -60 -91 l-35
-47 71 -32 c73 -33 230 -76 315 -87 27 -4 54 -10 59 -14 6 -5 52 -16 103 -25
50 -9 92 -19 92 -21 0 -10 -217 16 -405 47 -267 46 -399 115 -473 252 l-23 42
6 -65 c4 -36 20 -104 36 -152 20 -62 26 -94 20 -110 -6 -17 0 -46 20 -103 15
-44 26 -81 24 -83 -2 -2 -18 35 -36 83 -28 74 -34 83 -41 64 -5 -13 -6 -35 -3
-51 8 -34 -2 -37 -15 -5 -6 16 -9 -1 -9 -61 -1 -82 -1 -83 22 -77 l22 6 -23
-18 c-26 -22 -52 -67 -52 -94 0 -12 -5 -16 -14 -13 -19 7 -74 -107 -82 -170
-4 -25 -10 -43 -15 -41 -11 7 -23 -79 -15 -112 4 -16 9 -37 12 -48 3 -12 -2
-9 -12 9 -9 15 -19 58 -24 95 -4 36 -8 58 -9 49 -2 -31 -21 -19 -21 13 0 41
-30 169 -40 169 -16 0 -108 -148 -129 -208 -35 -97 -18 -162 62 -250 28 -30
34 -41 20 -33 -13 6 -23 9 -23 5 0 -4 -9 1 -20 11 -20 18 -20 18 -11 -11 5
-16 12 -45 15 -65 10 -56 57 -118 127 -165 l64 -43 18 30 c21 33 58 46 89 32
19 -8 17 -11 -21 -36 -23 -15 -39 -33 -35 -38 3 -6 -12 -30 -34 -52 -31 -32
-39 -46 -32 -57 8 -13 18 -11 66 15 31 17 61 29 66 27 5 -1 22 5 38 13 17 9
30 13 30 11 0 -8 -201 -166 -210 -166 -5 0 -17 -15 -29 -32 -11 -18 -27 -43
-36 -54 -15 -21 -14 -24 24 -60 32 -32 37 -42 28 -55 -7 -9 -18 -14 -26 -11
-24 8 -2 -17 45 -48 45 -32 51 -32 34 0 -10 18 -8 18 29 2 36 -15 40 -20 38
-52 0 -19 6 -50 14 -68 13 -32 16 -33 62 -30 l47 3 -1 -50 -2 -50 -6 44 -6 43
-19 -21 c-13 -14 -31 -21 -56 -21 -20 0 -42 -6 -49 -12 -9 -8 -11 -8 -8 -2 4
7 0 15 -8 18 -24 9 8 -47 42 -74 22 -17 25 -23 13 -30 -12 -8 -12 -10 -2 -10
25 0 7 -19 -38 -42 -59 -30 -74 -70 -74 -198 -1 -105 8 -130 100 -273 94 -145
178 -207 283 -207 50 0 53 1 47 23 -3 12 -6 27 -6 33 0 8 -15 10 -45 6 l-45
-5 15 29 c10 20 13 49 10 104 -4 68 -3 73 10 56 9 -11 15 -41 15 -68 0 -26 5
-48 10 -48 13 0 13 0 -5 230 -9 107 -15 231 -13 275 3 88 2 90 32 -77 45 -251
163 -332 483 -333 157 0 165 -8 20 -20 -90 -8 -215 7 -274 32 -52 21 -81 11
-89 -34 -10 -54 3 -193 31 -331 29 -140 31 -166 13 -157 -7 4 15 -21 50 -55
l62 -62 -36 -40 c-66 -73 -78 -115 -84 -278 -5 -138 -6 -145 -25 -142 -24 4
-72 48 -90 82 -30 60 -29 86 10 151 21 33 35 63 31 66 -10 10 -83 20 -116 15
-20 -3 -47 -19 -71 -43 -35 -35 -39 -44 -39 -88 0 -45 4 -54 48 -101 131 -143
226 -230 346 -314 l41 -29 -25 29 c-14 16 -31 34 -38 41 -8 6 -12 20 -10 30 4
23 42 20 116 -9 41 -16 58 -29 76 -62 51 -88 42 -130 -18 -89 -79 53 -21 0
101 -92 116 -89 125 -94 121 -68 -8 47 -52 188 -60 191 -5 2 -8 9 -8 15 0 7
-22 39 -48 72 -115 143 -161 266 -114 308 19 18 21 17 63 -13 24 -17 99 -66
165 -110 67 -43 133 -94 148 -113 33 -44 74 -144 91 -223 7 -33 17 -70 23 -80
6 -11 12 -98 13 -194 2 -172 3 -175 36 -257 33 -80 55 -166 68 -263 3 -25 9
-191 13 -370 5 -248 8 -298 13 -210 l5 115 2 -110 2 -110 44 -1 43 -1 6 336
c6 363 16 461 64 605 25 76 47 119 94 179 12 15 19 30 16 33 -5 6 -54 -55 -86
-108 -12 -21 -23 -38 -24 -38 -1 0 -3 84 -4 187 -2 189 3 223 34 223 15 0 15
1 -1 13 -17 13 -17 16 -1 83 26 103 62 184 103 229 36 39 36 39 3 10 -18 -17
-76 -72 -129 -122 -53 -52 -105 -94 -116 -94 -15 -1 -12 -4 9 -9 22 -6 10 -8
-46 -9 -90 -1 -98 7 -68 69 30 63 60 91 212 202 76 57 149 112 161 123 37 33
93 108 101 135 10 35 33 70 46 70 8 0 9 -34 4 -112 -6 -95 -10 -117 -29 -137
l-21 -24 23 12 c36 19 102 81 99 94 -1 7 14 13 36 15 32 3 43 -2 72 -31 19
-19 35 -45 35 -57 0 -37 -49 -171 -90 -247 -22 -39 -51 -105 -65 -146 -13 -41
-27 -82 -31 -91 -4 -10 39 17 95 60 56 42 100 78 98 80 -2 2 -18 0 -35 -5 -33
-10 -36 -7 -33 34 3 34 33 129 46 145 18 21 70 140 112 250 45 123 39 232 -19
305 l-21 26 39 40 c21 21 35 39 31 39 -5 0 -19 -12 -33 -27 -15 -16 -22 -20
-18 -10 6 16 4 16 -22 5 -15 -7 -44 -28 -64 -45 -19 -18 -39 -33 -44 -33 -5 0
-17 -6 -25 -14 -38 -33 -268 -141 -331 -155 -89 -21 -367 -5 -437 24 -34 14
-105 64 -111 78 -2 4 -9 13 -16 20 -28 28 -34 51 -22 87 9 29 17 36 46 40 19
3 48 2 65 -2 16 -4 46 -8 66 -8 43 0 131 29 124 40 -3 5 2 13 12 19 16 8 15
10 -7 15 -153 34 -209 50 -265 75 -44 20 -65 26 -65 17 0 -7 3 -16 7 -20 16
-15 1 -81 -23 -103 -14 -13 -29 -23 -34 -23 -5 0 -37 16 -71 36 -88 52 -133
102 -152 170 -9 31 -28 71 -43 91 -36 47 -44 82 -27 116 7 15 19 27 25 27 6 0
19 7 29 16 9 8 57 23 105 33 49 11 114 28 144 40 94 36 92 39 88 -99 -2 -107
-1 -121 16 -133 18 -13 18 -14 -6 -20 -15 -4 -50 1 -85 13 -52 17 -66 18 -108
7 -59 -15 -66 -28 -23 -45 66 -26 117 -56 111 -65 -3 -5 3 -6 14 -3 11 3 33 0
49 -8 16 -8 67 -20 115 -27 76 -11 103 -10 247 10 176 23 260 48 350 104 39
24 65 34 82 31 29 -6 66 18 56 34 -12 19 -61 14 -82 -9 -54 -59 -144 -91 -315
-110 -166 -18 -389 3 -389 37 0 19 10 22 102 40 45 9 88 19 93 23 6 4 31 15
57 25 26 9 74 35 108 57 33 21 64 39 69 39 16 0 61 42 56 51 -4 5 -39 9 -80 9
-146 0 -246 36 -272 98 -21 47 -19 69 12 142 21 49 25 76 25 151 0 103 17 142
68 152 70 14 85 -7 133 -186 19 -72 50 -153 79 -209 55 -109 64 -113 235 -129
175 -16 284 1 337 52 l23 21 -49 -7 c-171 -24 -310 -26 -392 -4 -42 11 -114
62 -114 80 0 6 12 2 28 -9 70 -50 254 -79 390 -62 258 33 340 117 392 405 l18
100 1 -95 c1 -52 -3 -144 -8 -205 -21 -244 -23 -297 -9 -293 7 3 14 13 16 24
11 73 24 101 55 112 l32 11 -3 114 c-3 83 1 128 12 168 19 64 19 63 74 112 37
32 39 37 17 31 -39 -10 -30 3 18 24 47 21 71 45 82 82 7 23 7 24 -10 10 -17
-14 -18 -13 -12 3 5 12 1 17 -13 17 -27 0 -25 14 3 29 13 7 29 21 35 32 15 24
6 63 -13 56 -10 -4 -11 4 -3 36 9 41 28 74 28 49 0 -20 35 -13 57 11 34 38 35
46 10 77 -14 16 -27 35 -29 42 -3 8 -14 2 -31 -17 -20 -24 -23 -32 -11 -38 8
-4 14 -15 14 -23 0 -14 -2 -14 -16 0 -8 9 -28 16 -42 16 -40 0 -171 38 -214
62 -47 27 -44 33 5 13 21 -8 37 -14 37 -12 0 2 -23 18 -51 36 -52 32 -61 49
-18 33 76 -28 82 -22 19 18 -84 54 -117 94 -70 87 23 -4 35 -14 35 -30 0 -7 7
-12 15 -12 8 0 15 -6 15 -12 0 -7 4 -13 9 -12 5 0 12 -4 15 -9 13 -20 109 -71
165 -87 41 -12 64 -14 80 -7 19 8 16 11 -29 25 -45 14 -47 16 -18 16 17 1 35
6 39 12 3 6 17 9 30 6 15 -2 30 3 40 14 9 10 21 16 26 13 11 -7 38 14 38 29 0
5 -9 2 -20 -8 -11 -10 -20 -13 -20 -8 0 6 7 16 16 24 14 12 14 14 -2 26 -10 7
-28 13 -41 13 -27 0 -27 0 -8 46 14 34 14 36 -3 31 -82 -27 -173 -47 -206 -46
-29 0 -35 3 -22 8 17 6 15 9 -13 21 -40 16 -114 75 -86 67 85 -23 143 -31 227
-31 125 -1 135 7 77 69 -51 55 -139 100 -232 119 -38 8 -72 18 -75 22 -8 8 92
-1 123 -11 14 -4 12 -2 -5 9 -14 8 -19 15 -12 16 6 0 21 -9 32 -20 11 -11 26
-20 34 -20 7 0 40 -18 72 -39 81 -54 121 -60 177 -28 48 29 92 71 49 48 -33
-18 -186 -11 -190 9 -2 12 12 15 75 15 86 0 153 24 153 54 0 10 11 28 25 41
14 13 25 27 25 30 0 4 -27 10 -59 13 -54 4 -134 34 -185 69 -15 10 -19 10 -23
1 -3 -7 -9 -13 -14 -13 -10 0 -72 -41 -77 -51 -1 -3 -16 -4 -32 -1 l-30 4 31
39 c83 105 159 166 159 127 0 -7 23 10 51 37 50 49 88 112 89 148 0 15 -2 15
-20 -3 -11 -11 -26 -20 -32 -20 -7 0 -25 -7 -40 -14 -29 -15 -31 -13 -29 29 0
11 -8 -3 -18 -30 -18 -51 -59 -135 -64 -135 -2 0 7 30 19 68 25 71 23 97 -7
148 -15 24 -19 51 -19 113 0 71 -2 80 -14 68 -8 -8 -20 -34 -26 -58 -10 -35
-14 -40 -22 -26 -5 10 -14 15 -19 11 -5 -3 -8 -2 -7 3 1 4 -3 18 -10 29 -32
59 -44 119 -39 199 7 103 9 112 33 130 17 14 16 14 -15 2 -19 -7 -48 -29 -64
-49 l-29 -36 27 -83 c31 -97 30 -162 -4 -225 l-20 -39 -1 62 c0 40 -5 67 -15
76 -14 15 -62 16 -97 2 -14 -5 -18 -2 -18 12 0 11 -13 38 -29 60 -15 21 -36
52 -45 69 -10 18 -15 21 -12 9 2 -11 7 -36 11 -55 5 -30 4 -32 -6 -15 -7 11
-13 21 -14 23 -1 1 -17 -12 -36 -29 l-34 -32 -15 37 c-8 20 -19 36 -23 36 -5
0 -23 11 -41 25 -47 36 -70 108 -61 193 4 37 11 74 15 82 9 17 -8 129 -22 147
-6 7 -3 25 7 50 l16 38 -44 -43 c-37 -36 -105 -136 -121 -176 -2 -6 -11 -2
-21 9 -9 11 -14 14 -10 8 8 -16 -7 -17 -23 -1 -16 16 -15 2 3 -47 20 -57 20
-72 -2 -53 -38 32 -40 26 -15 -32 16 -37 35 -63 47 -66 28 -9 94 -58 112 -84
13 -19 29 -90 19 -90 -2 0 -15 18 -30 40 -14 22 -32 37 -38 35 -7 -3 -28 17
-47 45 -19 28 -39 49 -45 47 -6 -3 -19 2 -28 11 -12 10 -18 11 -18 4 0 -17
-25 -15 -40 3 -7 8 -16 13 -20 10 -4 -3 -19 6 -34 20 -32 30 -40 20 -18 -25
12 -25 13 -35 4 -38 -7 -2 -12 -10 -12 -18 0 -18 -1 -18 -50 10 -26 15 -60 49
-87 88 -65 93 -199 310 -207 335 -4 13 36 -20 100 -83 59 -57 109 -102 112
-99 3 3 -39 50 -94 105 -54 55 -108 116 -119 135 -20 34 -20 34 0 48 19 14 18
16 -10 50 -17 20 -34 36 -39 36 -9 1 -2 -118 10 -171 l6 -26 -74 0 c-40 0 -91
-3 -113 -7 -51 -8 -99 22 -135 85 -24 44 -25 44 -28 18 -3 -28 -39 -47 -61
-34 -15 9 -81 -32 -125 -78 l-39 -41 22 38 c20 37 31 78 11 47 -5 -8 -12 -12
-15 -8 -8 8 14 44 90 143 68 88 100 135 92 135 -2 0 -17 -16 -31 -35z m-72
-95 c-6 -6 -10 -2 -11 12 -2 16 1 18 10 9 7 -7 8 -14 1 -21z m-58 -318 c7 -26
10 -49 7 -52 -11 -12 -33 37 -33 74 0 49 10 40 26 -22z m109 -212 c-15 -7 -9
-9 26 -9 25 -1 49 -5 55 -10 5 -5 59 -19 119 -31 125 -24 234 -71 280 -120
l30 -32 -72 36 c-103 51 -200 82 -337 105 -65 12 -124 21 -130 21 -6 0 -4 5 4
10 12 8 11 11 -10 17 l-25 7 25 7 c36 10 59 9 35 -1z m-516 -111 c50 -15 98
-19 225 -21 l161 -1 -135 -9 c-74 -4 -144 -8 -155 -8 -21 0 -221 63 -231 73
-7 7 39 -5 135 -34z m664 14 c-7 -2 -21 -2 -30 0 -10 3 -4 5 12 5 17 0 24 -2
18 -5z m60 -10 c-7 -2 -21 -2 -30 0 -10 3 -4 5 12 5 17 0 24 -2 18 -5z m54 -9
c-3 -3 -12 -4 -19 -1 -8 3 -5 6 6 6 11 1 17 -2 13 -5z m18 -36 c88 -13 195
-53 266 -101 89 -59 133 -116 63 -83 -50 24 -84 28 -90 12 -5 -12 -18 -8 -69
20 -138 76 -293 116 -503 130 -141 9 -118 25 50 34 138 7 167 6 283 -12z
m-110 -153 c118 -25 262 -100 325 -171 l25 -28 -30 18 c-16 10 -50 33 -75 50
-51 36 -108 66 -124 66 -6 0 14 -14 45 -31 31 -17 78 -51 105 -75 54 -50 35
-44 -65 21 -123 79 -228 122 -367 149 l-69 14 78 1 c43 1 111 -6 152 -14z
m-1265 -590 c19 -19 32 -35 29 -35 -3 0 -20 16 -39 35 -19 19 -32 35 -29 35 3
0 20 -16 39 -35z m2810 5 c18 -12 2 -12 -25 0 -13 6 -15 9 -5 9 8 0 22 -4 30
-9z m31 -22 c8 0 27 -9 40 -21 14 -12 19 -18 13 -14 -7 4 -54 13 -105 20 -67
8 -86 13 -68 19 13 4 42 4 64 1 22 -3 47 -5 56 -5z m-418 -37 c44 -19 85 -44
92 -55 8 -12 21 -59 29 -106 9 -46 24 -96 33 -110 16 -23 15 -24 -1 -11 -20
17 -20 23 14 -249 12 -96 22 -180 23 -186 0 -14 69 -48 115 -58 40 -9 52 -31
51 -93 0 -36 -3 -43 -9 -28 -5 11 -9 15 -9 8 -1 -6 -10 -9 -20 -6 -15 4 -21
17 -26 54 -8 58 -21 67 -175 117 -126 41 -191 52 -329 54 -94 1 -104 2 -54 7
70 7 74 9 67 38 -10 36 -130 55 -203 32 -76 -25 -127 -60 -118 -83 3 -8 -16
-23 -46 -38 -51 -25 -167 -117 -150 -119 4 0 -4 -4 -19 -9 -15 -4 -72 -2 -134
6 -60 8 -115 12 -123 9 -8 -3 -34 12 -60 33 -58 49 -92 67 -178 91 -82 23 -66
28 20 5 76 -19 125 -44 157 -79 14 -15 32 -31 42 -36 24 -13 -17 66 -86 166
-53 77 -54 80 -31 83 37 5 75 57 75 102 0 31 -6 43 -32 65 -32 27 -35 28 -133
22 -152 -9 -367 -62 -416 -104 -8 -7 -19 -13 -24 -13 -10 0 -84 -67 -109 -98
-11 -14 -20 -32 -21 -41 -3 -30 -34 -78 -55 -84 -16 -4 -20 -1 -16 11 14 47
18 182 6 217 -27 83 38 334 87 336 10 0 58 2 108 5 49 2 110 10 135 18 60 20
239 53 326 61 135 13 314 46 387 73 l74 27 329 0 329 0 78 -34z m290 -100 c19
-19 2 -29 -32 -17 -48 15 -56 41 -10 32 18 -3 37 -10 42 -15z m-2485 -488 c8
-14 9 -29 3 -45 -9 -23 -10 -22 -21 9 -12 32 -12 32 -42 17 -49 -25 -53 -11
-8 30 27 24 40 43 36 53 -3 8 -3 20 1 26 5 7 10 -5 13 -28 4 -22 11 -50 18
-62z m2196 -163 c75 -25 124 -63 143 -109 28 -66 -3 -279 -54 -372 -56 -104
-193 -158 -407 -160 -127 -1 -147 3 -219 50 -75 48 -136 203 -137 346 0 157
64 213 295 256 128 24 292 19 379 -11z m-1301 -4 c53 -26 46 -36 -15 -20 -62
16 -145 18 -207 3 -50 -11 -86 -5 -61 11 11 7 6 10 -20 11 l-35 1 30 9 c17 4
84 7 150 5 91 -2 129 -6 158 -20z m-679 -27 c-3 -6 -9 -34 -13 -62 -5 -44 -9
-51 -33 -58 -22 -6 -28 -3 -33 11 -9 27 13 98 33 109 23 14 55 14 46 0z m645
-30 c68 -14 128 -60 152 -115 25 -55 28 -148 6 -190 -35 -68 -288 -107 -381
-58 -49 25 -78 78 -82 148 l-3 51 12 -55 c13 -54 35 -100 48 -100 4 0 -2 17
-13 38 -15 28 -18 52 -16 103 5 99 53 154 155 178 53 12 65 12 122 0z m-468
-31 c-3 -21 -6 -26 -9 -15 -3 17 3 47 11 47 2 0 1 -15 -2 -32z m2190 -30 c-9
-32 -9 -31 -10 17 0 38 2 46 10 33 6 -11 6 -29 0 -50z m-2412 -205 c5 -21 11
-56 12 -78 3 -70 -1 -229 -6 -223 -3 3 -8 60 -11 127 -3 68 -9 143 -13 167
-10 54 4 59 18 7z m206 27 c4 -6 10 -8 15 -5 5 3 11 -3 15 -14 3 -11 19 -34
35 -53 24 -27 32 -30 39 -19 8 12 18 6 52 -28 23 -23 58 -49 77 -57 41 -17
131 -18 187 -2 52 14 141 13 182 -2 29 -11 39 -26 49 -82 5 -26 -79 -65 -166
-79 -85 -13 -207 0 -297 32 -32 12 -69 22 -82 24 -25 4 -67 39 -83 70 -5 11 2
5 17 -13 15 -17 36 -37 47 -43 11 -6 -2 11 -28 38 -27 27 -50 55 -51 63 -1 8
-9 40 -18 70 -8 30 -15 67 -15 82 0 28 13 37 25 18z m2100 -106 c-3 -24 -11
-47 -17 -50 -11 -7 -3 93 10 125 10 25 15 -24 7 -75z m-1448 -106 c-3 -8 -6
-5 -6 6 -1 11 2 17 5 13 3 -3 4 -12 1 -19z m-114 -1020 c12 -17 0 -75 -12 -62
-5 5 -12 26 -15 48 -8 40 7 47 27 14z m487 -1548 c-8 -5 -10 -10 -4 -10 8 0
14 -35 17 -97 3 -54 7 -107 9 -118 3 -17 -3 -20 -40 -23 l-43 -3 7 68 c4 37
11 71 16 74 5 3 5 23 -1 47 -5 25 -5 44 0 48 5 3 7 10 4 15 -4 5 6 9 22 9 22
0 25 -2 13 -10z m-15 -279 c3 -5 1 -12 -5 -16 -5 -3 -10 1 -10 9 0 18 6 21 15
7z m22 -63 c2 -18 0 -20 -7 -8 -7 10 -10 11 -10 3 0 -7 -4 -13 -8 -13 -5 0 -9
7 -9 15 0 8 4 12 8 9 4 -2 10 0 14 6 9 14 11 13 12 -12z m-4 -35 c-7 -2 -19
-2 -25 0 -7 3 -2 5 12 5 14 0 19 -2 13 -5z m0 -20 c-7 -2 -19 -2 -25 0 -7 3
-2 5 12 5 14 0 19 -2 13 -5z m7 -48 c0 -8 -4 -15 -8 -15 -5 0 -9 7 -9 15 0 8
4 15 9 15 4 0 8 -7 8 -15z m-3 -51 c-3 -3 -12 -4 -19 -1 -8 3 -5 6 6 6 11 1
17 -2 13 -5z"/>
<path d="M3137 5019 c7 -7 15 -10 18 -7 3 3 -2 9 -12 12 -14 6 -15 5 -6 -5z"/>
<path d="M3425 4033 c-61 -7 -75 -14 -90 -43 -19 -37 -19 -83 0 -120 18 -35
31 -36 105 -10 63 22 184 26 307 9 122 -16 288 -100 319 -162 22 -41 27 -28 8
19 -44 111 -85 166 -148 200 -92 49 -115 59 -155 65 -26 3 -75 14 -110 24 -36
9 -80 15 -98 12 -20 -4 -31 -2 -28 4 6 9 -48 10 -110 2z"/>
<path d="M3598 3606 c-25 -7 -58 -20 -72 -29 -55 -36 -97 -132 -95 -217 1 -36
3 -32 20 58 21 108 122 173 246 158 93 -11 157 -54 188 -128 19 -47 19 -91 0
-154 -12 -41 -12 -46 0 -30 14 19 21 54 29 155 3 41 0 64 -15 93 -44 87 -175
128 -301 94z"/>
<path d="M3585 3541 c-63 -26 -107 -120 -85 -185 33 -102 139 -146 230 -97 40
21 80 89 80 135 0 48 -40 117 -80 138 -36 19 -109 23 -145 9z m165 -62 c0 -12
-29 -38 -42 -39 -10 0 -10 34 -1 43 11 11 43 8 43 -4z m-121 -186 c53 -18 51
-33 -5 -33 -38 0 -79 31 -88 65 -10 40 4 50 25 16 12 -20 34 -36 68 -48z"/>
<path d="M2520 3514 c-88 -80 -73 -211 31 -265 104 -53 229 24 229 140 0 96
-68 161 -167 161 -47 0 -58 -4 -93 -36z m205 -35 c7 -10 -21 -38 -37 -39 -12
0 -9 25 4 38 15 15 25 15 33 1z m-195 -146 c0 -5 16 -19 35 -32 35 -23 45 -41
24 -41 -5 0 -7 5 -3 11 4 7 0 9 -13 5 -10 -3 -26 0 -35 6 -20 16 -33 58 -19
58 6 0 11 -3 11 -7z"/>
<path d="M3172 460 c0 -14 2 -19 5 -12 2 6 2 18 0 25 -3 6 -5 1 -5 -13z"/>
<path d="M3142 354 c-17 -19 -7 -34 24 -34 17 0 24 5 24 19 0 11 -4 23 -10 26
-5 3 -10 0 -10 -7 0 -9 -2 -10 -8 -2 -5 9 -11 8 -20 -2z"/>
<path d="M2981 5946 c-8 -10 -9 -16 -1 -21 6 -4 9 -1 8 7 -2 7 3 12 10 10 8
-1 11 2 7 8 -8 13 -10 13 -24 -4z"/>
<path d="M3014 5834 c5 -12 1 -14 -17 -9 -20 5 -20 5 3 -9 35 -21 40 -20 40 9
0 16 -6 25 -16 25 -11 0 -14 -5 -10 -16z"/>
<path d="M3870 5632 c0 -16 8 -53 19 -83 27 -80 93 -230 98 -225 3 2 0 14 -6
25 -6 11 -14 41 -17 67 -3 25 -21 84 -40 131 -19 47 -34 92 -34 99 0 8 -4 14
-10 14 -5 0 -10 -13 -10 -28z"/>
<path d="M1800 5198 c-3 -59 -1 -104 3 -99 4 4 6 52 5 107 l-3 99 -5 -107z"/>
<path d="M1690 5072 c0 -59 -5 -99 -15 -119 -8 -16 -17 -45 -20 -64 -5 -31 -4
-30 9 8 17 51 47 101 79 131 34 33 25 89 -21 115 l-32 19 0 -90z"/>
<path d="M4558 5108 c-16 -5 -28 -17 -27 -26 1 -29 17 -98 18 -79 0 10 12 40
26 67 27 53 26 54 -17 38z"/>
<path d="M1566 4064 c-11 -28 -6 -37 12 -22 9 9 24 13 32 11 9 -3 7 1 -5 11
-25 20 -31 20 -39 0z"/>
<path d="M4444 3372 c-17 -2 -44 -15 -60 -30 -17 -15 -25 -24 -20 -19 6 4 31
7 57 7 40 0 51 -4 73 -31 33 -39 41 -68 41 -154 0 -47 -6 -81 -17 -104 -23
-44 -23 -50 0 -20 58 75 74 162 47 255 -9 32 -21 64 -27 71 -14 17 -58 29 -94
25z"/>
<path d="M4300 3191 c0 -43 13 -81 24 -72 6 5 22 11 36 13 34 4 39 41 8 62
-32 22 -68 21 -68 -3z"/>
<path d="M4145 2739 c-10 -29 0 -34 63 -33 51 1 142 33 142 49 0 3 -13 -1 -30
-10 -38 -20 -134 -20 -154 0 -13 13 -15 13 -21 -6z"/>
<path d="M4088 2143 c-10 -2 -18 -8 -18 -12 0 -4 23 -40 50 -80 56 -81 62
-118 36 -205 -15 -48 -15 -48 6 -29 50 45 107 135 114 179 8 57 -9 118 -39
139 -20 14 -107 19 -149 8z"/>
<path d="M3474 1798 l-19 -23 23 19 c21 18 27 26 19 26 -2 0 -12 -10 -23 -22z"/>
<path d="M2710 1735 c-22 -23 -23 -29 -16 -112 3 -49 17 -132 29 -185 l23 -97
44 21 c32 15 61 21 100 19 30 -2 52 0 48 5 -4 4 -4 12 2 18 10 13 -41 160 -87
254 -27 56 -73 102 -102 102 -10 0 -28 -11 -41 -25z"/>
<path d="M3464 1746 c-7 -19 4 -307 15 -366 4 -25 14 -58 22 -73 14 -25 17
-27 28 -13 9 11 10 16 2 16 -18 0 -13 103 8 188 39 153 36 228 -9 252 -27 14
-60 12 -66 -4z"/>
<path d="M2100 1695 c0 -8 -6 -15 -13 -15 -15 0 -50 -34 -43 -41 3 -2 -8 -19
-23 -38 -22 -26 -36 -34 -73 -38 -40 -5 -56 0 -112 31 -76 41 -81 35 -46 -50
21 -52 80 -266 79 -287 0 -6 -29 48 -64 121 -36 72 -67 132 -71 132 -6 0 -2
-27 16 -105 17 -79 33 -185 28 -190 -2 -3 -22 27 -44 67 -46 84 -97 143 -115
132 -9 -5 -6 -10 9 -15 30 -11 54 -54 59 -102 2 -23 11 -67 19 -97 8 -30 17
-68 20 -85 2 -16 7 -40 10 -53 4 -20 1 -19 -25 10 -22 23 -31 28 -31 17 0 -9
6 -22 14 -28 8 -7 32 -56 53 -109 21 -53 40 -100 41 -104 8 -17 -21 -6 -46 17
-15 14 -32 25 -39 25 -6 0 -13 6 -16 13 -3 9 -15 6 -45 -10 -23 -13 -48 -23
-57 -23 -8 0 -51 18 -95 40 -44 22 -80 38 -80 35 0 -2 27 -23 60 -45 66 -45
78 -60 28 -34 l-32 17 27 -34 c15 -19 36 -45 46 -59 11 -14 30 -38 43 -55 48
-60 98 -144 98 -164 l0 -20 -35 20 c-19 12 -35 24 -35 28 0 4 -14 18 -31 30
-18 13 -28 17 -24 10 7 -12 6 -12 -7 -1 -13 10 -23 6 -61 -28 -48 -42 -62 -73
-72 -153 l-7 -47 44 -19 c24 -10 51 -29 60 -42 8 -13 33 -42 55 -65 78 -80
143 -200 143 -264 0 -20 4 -20 530 -20 l530 0 0 23 c0 12 -11 39 -25 60 -14
20 -22 37 -18 37 4 0 -3 7 -15 16 -12 8 -22 22 -22 30 0 8 -4 14 -10 14 -5 0
-10 5 -10 10 0 6 -17 36 -39 68 -21 31 -51 82 -65 112 -15 30 -31 62 -36 70
-5 8 -21 56 -35 107 -27 100 -32 202 -15 308 16 103 65 117 200 60 131 -55
186 -112 230 -238 49 -143 58 -225 59 -534 l1 -143 46 0 46 0 -6 33 c-3 17 -6
124 -6 237 -2 328 -36 563 -101 693 -44 87 -112 144 -294 247 -185 106 -219
134 -264 220 -41 78 -35 72 -156 178 -105 93 -135 112 -135 87z m136 -516 c7
-30 16 -99 18 -154 5 -106 4 -103 -20 70 -8 61 -17 119 -21 130 -3 11 -2 17 1
14 4 -4 14 -31 22 -60z m128 -244 l5 -120 -14 95 c-7 52 -13 122 -13 155 0
105 17 7 22 -130z m-97 -97 c-2 -18 -4 -6 -4 27 0 33 2 48 4 33 2 -15 2 -42 0
-60z"/>
<path d="M4445 1596 c-22 -13 -60 -32 -85 -41 -25 -9 -54 -20 -65 -25 -11 -4
-54 -20 -95 -35 -41 -15 -79 -32 -84 -36 -6 -5 -16 -9 -23 -9 -8 0 -49 -20
-91 -44 -128 -73 -181 -102 -331 -177 -214 -108 -275 -174 -320 -339 -41 -153
-53 -273 -58 -587 l-5 -303 24 0 c25 0 25 0 15 62 -5 35 -10 180 -11 323 -1
310 9 397 61 497 31 59 45 74 107 115 93 63 312 173 342 173 16 0 25 -7 28
-22 3 -13 7 -178 10 -368 3 -190 9 -366 12 -392 l6 -47 -53 -16 c-38 -12 -105
-18 -224 -21 -221 -6 -215 -5 -214 -52 1 -21 4 -28 6 -15 6 28 21 31 214 35
135 2 169 0 184 -12 17 -14 16 -15 -6 -22 -17 -5 -12 -6 15 -3 62 7 92 -3 91
-30 0 -13 -3 -27 -7 -31 -5 -4 -8 -45 -8 -91 l0 -83 338 0 337 0 0 125 c0 109
-2 125 -16 125 -32 0 -38 58 -13 130 8 24 31 78 50 120 19 41 36 86 38 100 7
61 87 172 198 275 40 37 64 63 53 57 -51 -26 -145 -104 -186 -153 -44 -53
-109 -153 -109 -168 0 -4 -18 -24 -40 -46 -28 -27 -41 -34 -44 -24 -2 8 -10
40 -17 72 -6 31 -16 57 -21 57 -19 0 34 166 83 263 11 20 17 37 14 37 -3 0
-33 -56 -66 -125 -55 -113 -79 -148 -79 -112 0 26 42 245 66 341 13 55 22 102
19 104 -3 3 -5 -1 -6 -9 -1 -8 -4 -3 -8 10 -5 17 -17 -14 -48 -125 -23 -82
-44 -158 -47 -169 -2 -13 -4 -9 -5 10 -2 56 27 190 80 360 54 179 70 237 65
243 -6 5 -33 -70 -61 -171 -28 -98 -44 -127 -26 -46 12 54 7 63 -9 15 -6 -20
-15 -34 -19 -31 -7 4 -65 -186 -78 -257 -3 -16 -9 -28 -14 -28 -5 0 -9 -7 -9
-16 0 -19 -45 -76 -53 -67 -4 3 -18 -9 -32 -26 -15 -17 -33 -31 -41 -31 -8 0
-14 -6 -15 -12 -1 -7 -5 -2 -9 12 -8 24 -8 23 -9 -7 -1 -18 -5 -34 -11 -34
-20 -3 -25 -4 -38 -12 -7 -5 -15 -2 -19 9 -6 16 -7 16 -15 -2 -12 -29 -1 401
12 474 11 55 17 67 58 102 25 22 100 67 166 100 84 42 135 74 165 105 49 50
45 56 -14 21z m-440 -597 c0 -328 -5 -342 -30 -84 -12 125 -13 182 -5 260 11
106 17 135 28 135 4 0 7 -140 7 -311z m16 176 c-8 -75 -8 -76 -10 -25 -1 66
13 180 17 135 1 -16 -2 -66 -7 -110z m396 23 c-3 -8 -6 -5 -6 6 -1 11 2 17 5
13 3 -3 4 -12 1 -19z"/>
<path d="M2412 1564 c10 -10 20 -15 24 -12 3 4 -5 12 -18 18 -22 12 -22 12 -6
-6z"/>
<path d="M4613 1400 c-17 -10 -37 -29 -44 -42 -9 -19 -5 -17 23 10 19 17 42
32 51 32 9 0 17 5 17 10 0 15 -11 12 -47 -10z"/>
<path d="M3564 1328 l-19 -23 23 19 c21 18 27 26 19 26 -2 0 -12 -10 -23 -22z"/>
<path d="M3469 1243 l-24 -28 28 24 c25 23 32 31 24 31 -2 0 -14 -12 -28 -27z"/>
<path d="M3414 1188 l-19 -23 23 19 c21 18 27 26 19 26 -2 0 -12 -10 -23 -22z"/>
<path d="M1170 234 c0 -2 33 -26 73 -53 39 -27 79 -57 87 -68 9 -10 33 -33 55
-52 22 -18 36 -31 30 -29 -5 2 -41 19 -79 37 -54 26 -71 30 -77 19 -5 -7 -6
-20 -3 -28 4 -8 9 -25 11 -37 5 -22 10 -23 90 -23 75 0 84 2 79 16 -6 15 -4
15 19 0 19 -13 44 -16 101 -14 l76 3 -69 50 c-37 27 -74 55 -81 62 -7 7 -18
13 -23 13 -6 0 -14 12 -20 28 -5 15 -25 40 -44 55 -28 22 -39 26 -54 17 -24
-12 -82 -13 -133 -1 -21 5 -38 7 -38 5z"/>
<path d="M5070 206 c-19 -12 -59 -32 -88 -45 -30 -12 -77 -37 -105 -54 -29
-18 -64 -38 -78 -46 -14 -7 -39 -23 -55 -36 l-29 -24 41 -1 c35 0 57 11 140
67 106 71 214 151 214 159 0 6 -1 5 -40 -20z"/>
<path d="M3390 102 c0 -84 3 -102 15 -102 12 0 14 14 9 93 -9 128 -24 134 -24
9z"/>
</g>
</svg>
